<svg width="144" height="96" xmlns="http://www.w3.org/2000/svg"><g fill="none" fill-rule="evenodd"><path d="M96.781 66.119c-7.105 0-13.844-1.936-22.406-5.057-2.41-.859-6.826-2.594-11.801-4.541-7.695-3.018-17.273-6.773-22.025-8.285-6.963-2.131-10.27-2.512-14.627-2.512-3.189 0-7.459 2.361-7.459 4.779 0 .522.111 1.478.861 2.032 1.275 1.008 1.98 2.287 2.088 3.684.08 1.062-.139 2.67-1.654 4.32-1.559 1.666-4.48 3.582-7.67 3.582C8.199 64.121 4 60.629 4 54.998c0-3.527 2.102-8.885 7.998-13.33 5.787-4.365 10.797-6.531 16.521-7.109C37.732 27.459 47.29 24 57.714 24c8.441 0 15.931 2.875 18.748 3.953 2.146.82 8.533 3.535 15.304 6.416l7.801 3.311c7.998 3.391 15.293 5.334 20.026 5.334.593 0 5.812-.074 5.812-2.621 0-.398-.055-.9-.198-1.006a3.455 3.455 0 01-.381-.328c-.937-.938-2.183-2.402-2.183-4.367 0-4.023 3.646-8.523 8.527-8.523 2.625 0 4.986 1.195 6.645 3.371 1.31 1.713 2.06 3.908 2.06 6.02.004 9.361-9.776 14.652-13.845 16.674-8.546 9.211-18.384 13.885-29.249 13.885zM45.73 36.123c2.445.613 5.395 1.498 9.031 2.771 4.627 1.621 11.352 4.309 17.285 6.68 5.283 2.111 10.274 4.104 12.841 4.973 6.362 2.113 11.686 3.525 16.905 3.525 1.125 0 2.551-.076 4.062-.365-3.317-.617-6.787-1.604-10.278-2.951-2.695-1.061-7.248-3.053-12.136-5.182-7.02-3.066-14.971-6.539-18.496-7.725-4.936-1.678-9.504-2.488-13.959-2.488-1.905-.006-3.671.258-5.255.762z" fill="#FFF" opacity=".6"/><path d="M123.824 49.3c-8.906 9.841-18.146 13.216-27.051 13.216-6.564 0-12.875-1.812-21.176-4.836-6.305-2.25-26.094-10.371-33.963-12.875-7.344-2.25-11.061-2.678-15.719-2.678-4.492 0-11.061 3.283-11.061 8.377 0 1.812.684 3.712 2.324 4.927.863.688.863 1.645-.082 2.68-1.209 1.289-3.285 2.422-5.016 2.422-1.984 0-4.494-1.9-4.494-5.527 0-2.07 1.299-6.486 6.566-10.453 5.619-4.238 10.195-6.133 15.725-6.484 11.484-9.16 21.52-10.451 27.824-10.451 7.428 0 14.074 2.422 17.446 3.713 2.937 1.123 14.611 6.137 22.992 9.682 8.562 3.627 16.244 5.617 21.435 5.617 4.67 0 9.409-1.641 9.409-6.221 0-1.904-.604-3.113-1.639-3.887-.523-.525-1.121-1.211-1.121-1.818 0-1.898 1.996-4.926 4.928-4.926 3.293-.004 5.104 3.283 5.104 5.791.011 6.985-7.503 11.309-12.431 13.731zm-26.957-1.907c-6.559-2.588-24.629-10.883-30.762-12.959-5.097-1.727-10.105-2.679-15.117-2.679-6.129 0-11.234 2.326-14.258 6.564 3.629.176 8.207.947 16.848 3.973 8.641 3.024 24.543 9.767 30.162 11.665 6.223 2.066 12.094 3.713 18.059 3.713 6.564 0 12.369-2.25 15.475-7.088-5.379.795-12.545-.157-20.407-3.189z" fill="#000"/></g></svg>