<svg width="351" height="185" xmlns="http://www.w3.org/2000/svg"><g fill="none" fill-rule="evenodd"><g opacity=".6" fill="#FFF"><g transform="translate(22.667 .246)"><ellipse cx="7.468" cy="91.512" rx="7.468" ry="7.5"/><ellipse cx="7.468" cy="91.512" rx="7.468" ry="7.5"/><ellipse cx="7.468" cy="91.512" rx="7.468" ry="7.5"/><ellipse cx="7.471" cy="91.507" rx="7.47" ry="7.502"/><ellipse cx="7.471" cy="91.507" rx="7.47" ry="7.502"/><ellipse cx="7.471" cy="91.512" rx="7.465" ry="7.497"/><ellipse cx="22.993" cy="82.507" rx="7.47" ry="7.502"/><ellipse cx="7.471" cy="91.507" rx="7.47" ry="7.502"/><path d="M38.528 81.009a7.5 7.5 0 01-6.48-3.744c-2.056-3.578-.834-8.177 2.734-10.245a7.462 7.462 0 013.734-1.008 7.469 7.469 0 016.467 3.756 7.445 7.445 0 01.75 5.671 7.446 7.446 0 01-3.48 4.565 7.482 7.482 0 01-3.725 1.005z"/><ellipse cx="52.746" cy="65.259" rx="5.977" ry="6.003"/><path d="M65.686 63.762a6 6 0 01-5.178-3.003 6.006 6.006 0 01-.59-4.556 5.938 5.938 0 012.792-3.639 5.954 5.954 0 012.99-.805 5.965 5.965 0 015.17 3.009 5.942 5.942 0 01.6 4.532 5.962 5.962 0 01-2.789 3.654 6.047 6.047 0 01-2.995.808z"/><ellipse cx="78.614" cy="50.256" rx="5.974" ry="6"/><ellipse cx="90.258" cy="43.506" rx="4.481" ry="4.5"/><ellipse cx="100.606" cy="37.506" rx="4.481" ry="4.5"/><ellipse cx="110.953" cy="31.509" rx="4.481" ry="4.5"/><path d="M121.31 30.006a4.497 4.497 0 01-3.874-2.226c-1.24-2.192-.496-4.943 1.634-6.175a4.472 4.472 0 012.228-.598 4.5 4.5 0 013.869 2.223c1.24 2.201.495 4.943-1.622 6.179a4.493 4.493 0 01-2.235.597zm10.346-5.994a4.503 4.503 0 01-3.874-2.223c-1.234-2.177-.499-4.925 1.616-6.17a4.451 4.451 0 012.25-.611c1.586 0 3.078.86 3.88 2.25a4.443 4.443 0 01.455 3.409 4.44 4.44 0 01-2.094 2.742 4.424 4.424 0 01-2.233.603zm10.342-6.003a4.497 4.497 0 01-3.883-2.25 4.518 4.518 0 01-.45-3.425 4.47 4.47 0 012.1-2.726 4.409 4.409 0 012.238-.6 4.49 4.49 0 013.877 2.25 4.485 4.485 0 01.444 3.427 4.464 4.464 0 01-2.103 2.727 4.406 4.406 0 01-2.223.597z"/><ellipse cx="68.7" cy="153" rx="7.468" ry="7.5"/><ellipse cx="68.7" cy="153" rx="7.468" ry="7.5"/><ellipse cx="68.7" cy="153" rx="7.468" ry="7.5"/><ellipse cx="68.7" cy="153" rx="7.468" ry="7.5"/><ellipse cx="68.7" cy="153" rx="7.468" ry="7.5"/><path d="M68.7 145.503c4.126 0 7.468 3.357 7.468 7.497s-3.342 7.497-7.468 7.497c-4.119 0-7.462-3.357-7.462-7.497s3.343-7.497 7.462-7.497z"/><ellipse cx="77.662" cy="137.409" rx="7.468" ry="7.5"/><ellipse cx="68.7" cy="153" rx="7.468" ry="7.5"/><path d="M86.612 129.322a7.351 7.351 0 01-3.722-1.007 7.417 7.417 0 01-3.477-4.541 7.457 7.457 0 01.743-5.701 7.467 7.467 0 016.465-3.753c1.31 0 2.605.35 3.737 1.02a7.412 7.412 0 013.471 4.534 7.454 7.454 0 01-.747 5.705 7.467 7.467 0 01-6.47 3.743z"/><ellipse cx="94.839" cy="107.526" rx="5.977" ry="6.003"/><path d="M102.307 100.537a6.014 6.014 0 01-2.987-.805 5.987 5.987 0 01-2.789-3.668 5.94 5.94 0 01.624-4.543 5.955 5.955 0 015.152-2.988c1.05 0 2.088.284 2.999.814a5.896 5.896 0 012.777 3.634 5.941 5.941 0 01-.604 4.561 5.973 5.973 0 01-5.172 2.995zm7.468-24.993c3.296 0 5.971 2.687 5.971 6 0 3.311-2.675 6-5.971 6-3.303 0-5.975-2.689-5.975-6 0-3.313 2.672-6 5.975-6z"/><ellipse cx="116.496" cy="69.858" rx="4.481" ry="4.5"/><ellipse cx="122.468" cy="59.462" rx="4.481" ry="4.5"/><ellipse cx="128.445" cy="49.072" rx="4.481" ry="4.5"/><path d="M134.42 43.178a4.55 4.55 0 01-2.217-.587c-2.158-1.263-2.895-4.02-1.665-6.157a4.513 4.513 0 013.889-2.253c.77 0 1.534.196 2.21.583 2.159 1.282 2.886 4.032 1.675 6.157a4.506 4.506 0 01-3.892 2.257zm5.968-10.39c-.77 0-1.534-.202-2.206-.58-2.152-1.272-2.883-4.02-1.68-6.15a4.503 4.503 0 013.89-2.271c.785 0 1.558.206 2.238.597a4.503 4.503 0 011.644 6.154 4.512 4.512 0 01-3.886 2.25zm5.98-10.39a4.496 4.496 0 01-2.234-.6c-2.145-1.254-2.874-4.014-1.64-6.147a4.468 4.468 0 013.88-2.25c.782 0 1.555.209 2.235.597a4.524 4.524 0 011.646 6.153 4.52 4.52 0 01-3.887 2.247zm5.975 160.608c-4.113 0-7.471-3.363-7.471-7.5 0-4.137 3.352-7.5 7.471-7.5 4.116 0 7.468 3.363 7.468 7.5 0 4.137-3.349 7.5-7.468 7.5z"/><path d="M152.343 183.006c-4.113 0-7.471-3.363-7.471-7.5 0-4.137 3.352-7.5 7.471-7.5 4.116 0 7.468 3.363 7.468 7.5 0 4.137-3.349 7.5-7.468 7.5z"/><path d="M152.343 183.006c-4.113 0-7.471-3.363-7.471-7.5 0-4.137 3.352-7.5 7.471-7.5 4.116 0 7.468 3.363 7.468 7.5 0 4.137-3.349 7.5-7.468 7.5z"/><ellipse cx="152.343" cy="175.505" rx="7.47" ry="7.502"/><ellipse cx="152.343" cy="175.505" rx="7.47" ry="7.502"/><ellipse cx="152.343" cy="175.503" rx="7.465" ry="7.497"/><ellipse cx="152.343" cy="157.505" rx="7.47" ry="7.502"/><ellipse cx="152.343" cy="175.505" rx="7.47" ry="7.502"/><path d="M152.337 147c-4.113 0-7.462-3.363-7.462-7.5a7.455 7.455 0 012.18-5.3 7.372 7.372 0 015.276-2.197 7.41 7.41 0 015.292 2.198 7.454 7.454 0 012.18 5.305c-.004 4.131-3.353 7.491-7.466 7.494z"/><ellipse cx="152.343" cy="123.003" rx="5.977" ry="6.003"/><path d="M152.343 114a5.944 5.944 0 01-4.236-1.764 5.955 5.955 0 01-1.733-4.245c0-1.591.613-3.093 1.742-4.227a5.9 5.9 0 014.215-1.758 5.986 5.986 0 015.986 6c-.006 3.308-2.68 5.994-5.974 5.994zm0-26.997c3.296 0 5.971 2.686 5.971 5.997 0 3.317-2.675 6-5.971 6-3.302 0-5.975-2.683-5.975-6 0-3.31 2.673-5.997 5.975-5.997z"/><ellipse cx="152.343" cy="79.497" rx="4.481" ry="4.5"/><ellipse cx="152.337" cy="67.5" rx="4.481" ry="4.5"/><ellipse cx="152.343" cy="55.503" rx="4.481" ry="4.5"/><path d="M152.331 47.997c-2.461-.009-4.469-2.031-4.469-4.5.006-2.447 1.996-4.468 4.44-4.5 2.522.027 4.522 2.041 4.522 4.5a4.493 4.493 0 01-1.31 3.181 4.45 4.45 0 01-3.16 1.319h-.023zm-.006-11.991c-2.451-.018-4.457-2.035-4.463-4.497 0-2.475 2.002-4.497 4.466-4.509 1.213 0 2.336.468 3.183 1.325a4.507 4.507 0 011.307 3.184c-.01 2.459-2.008 4.479-4.454 4.497h-.039zm.006-12.003c-2.473-.009-4.475-2.035-4.466-4.509a4.434 4.434 0 011.292-3.157 4.42 4.42 0 013.186-1.334c2.467 0 4.48 2.016 4.48 4.5-.011 2.487-2.023 4.5-4.48 4.5h-.012zm83.66 136.497a7.476 7.476 0 01-6.473-3.756 7.432 7.432 0 01-.744-5.696 7.44 7.44 0 013.477-4.552 7.44 7.44 0 013.729-1.008 7.489 7.489 0 016.473 3.75c2.048 3.587.823 8.183-2.727 10.248a7.388 7.388 0 01-3.735 1.014z"/><ellipse cx="235.98" cy="152.995" rx="7.47" ry="7.502"/><ellipse cx="235.98" cy="152.995" rx="7.47" ry="7.502"/><path d="M235.98 145.494c4.125 0 7.468 3.357 7.468 7.497s-3.343 7.497-7.468 7.497c-4.12 0-7.463-3.357-7.463-7.497s3.343-7.497 7.463-7.497z"/><path d="M235.98 145.494c4.125 0 7.468 3.357 7.468 7.497s-3.343 7.497-7.468 7.497c-4.12 0-7.463-3.357-7.463-7.497s3.343-7.497 7.463-7.497z"/><path d="M235.98 145.5c4.125 0 7.468 3.351 7.468 7.494s-3.343 7.5-7.468 7.5c-4.12 0-7.463-3.357-7.463-7.5s3.343-7.494 7.463-7.494z"/><ellipse cx="227.018" cy="137.405" rx="7.47" ry="7.502"/><path d="M235.98 145.494c4.125 0 7.468 3.357 7.468 7.497s-3.343 7.497-7.468 7.497c-4.12 0-7.463-3.357-7.463-7.497s3.343-7.497 7.463-7.497zm-17.912-16.18a7.465 7.465 0 01-6.473-3.744 7.41 7.41 0 01-.744-5.699 7.413 7.413 0 013.483-4.55 7.381 7.381 0 013.722-1.001 7.486 7.486 0 016.473 3.753c2.048 3.577.823 8.167-2.73 10.236a7.473 7.473 0 01-3.73 1.005zm-8.227-27.791c3.303 0 5.975 2.69 5.975 6.003 0 3.317-2.672 6.003-5.975 6.003-3.305 0-5.98-2.686-5.98-6.003 0-3.313 2.675-6.003 5.98-6.003zm-7.468-.987a5.956 5.956 0 01-5.175-3.021 5.962 5.962 0 01-.6-4.537 5.976 5.976 0 012.806-3.64 5.904 5.904 0 012.981-.805 5.96 5.96 0 015.158 3.003c1.653 2.868.673 6.538-2.18 8.195a5.985 5.985 0 01-2.99.805z"/><ellipse cx="194.905" cy="81.544" rx="5.974" ry="6"/><ellipse cx="188.184" cy="69.852" rx="4.481" ry="4.5"/><ellipse cx="182.206" cy="59.462" rx="4.481" ry="4.5"/><ellipse cx="176.235" cy="49.066" rx="4.481" ry="4.5"/><path d="M170.26 43.178a4.495 4.495 0 01-3.88-2.25c-1.213-2.157-.487-4.9 1.616-6.145a4.556 4.556 0 012.264-.611c1.593 0 3.08.86 3.887 2.25 1.225 2.142.49 4.893-1.622 6.14a4.531 4.531 0 01-2.265.616zm-5.968-10.394a4.495 4.495 0 01-3.88-2.25c-1.222-2.139-.496-4.89 1.604-6.141a4.53 4.53 0 012.258-.621c1.601 0 3.089.867 3.894 2.256 1.216 2.151.48 4.893-1.61 6.135a4.498 4.498 0 01-2.266.621zm-5.975-10.395a4.49 4.49 0 01-3.889-2.262 4.425 4.425 0 01-.456-3.363 4.48 4.48 0 014.34-3.375c1.593 0 3.08.858 3.884 2.25 1.228 2.174.484 4.925-1.656 6.153a4.408 4.408 0 01-2.223.597zm138.901 76.617a7.42 7.42 0 01-3.743-1.017A7.414 7.414 0 01290 93.445a7.5 7.5 0 01.744-5.701 7.487 7.487 0 016.476-3.747c1.304 0 2.59.348 3.728 1.005 3.556 2.075 4.778 6.674 2.74 10.248a7.482 7.482 0 01-6.471 3.756z"/><ellipse cx="297.212" cy="91.499" rx="7.47" ry="7.502"/><ellipse cx="297.212" cy="91.499" rx="7.47" ry="7.502"/><path d="M297.206 84.006c4.125 0 7.468 3.357 7.468 7.497S301.331 99 297.206 99c-4.12 0-7.462-3.357-7.462-7.497s3.342-7.497 7.462-7.497z"/><path d="M297.206 84.006c4.125 0 7.468 3.357 7.468 7.497S301.331 99 297.206 99c-4.12 0-7.462-3.357-7.462-7.497s3.342-7.497 7.462-7.497z"/><path d="M297.212 99a7.51 7.51 0 01-3.734-1.002A7.446 7.446 0 01290 93.439a7.487 7.487 0 01.735-5.68 7.488 7.488 0 016.476-3.753c1.307 0 2.599.351 3.734 1.014a7.427 7.427 0 013.468 4.547 7.427 7.427 0 01-.744 5.689A7.473 7.473 0 01297.212 99z"/><ellipse cx="281.687" cy="82.499" rx="7.47" ry="7.502"/><path d="M297.206 84.006c4.125 0 7.468 3.357 7.468 7.497S301.331 99 297.206 99c-4.12 0-7.462-3.357-7.462-7.497s3.342-7.497 7.462-7.497zM266.161 81a7.476 7.476 0 01-3.728-1.005 7.406 7.406 0 01-3.49-4.574 7.433 7.433 0 01.76-5.68 7.477 7.477 0 016.458-3.744c1.313 0 2.599.351 3.737 1.014 3.562 2.066 4.796 6.659 2.74 10.236A7.478 7.478 0 01266.16 81zm-14.23-21.744c3.3 0 5.978 2.684 5.978 6 0 3.31-2.678 5.997-5.978 5.997-3.299 0-5.968-2.686-5.968-5.997 0-3.316 2.669-6 5.968-6zm-12.934 4.494a5.892 5.892 0 01-3.003-.824 5.931 5.931 0 01-2.769-3.636 5.955 5.955 0 01.616-4.552c1.029-1.828 3.01-2.988 5.154-2.988 1.05 0 2.084.279 2.993.809a5.934 5.934 0 012.783 3.642 5.965 5.965 0 01-.6 4.558 6.005 6.005 0 01-5.174 2.991z"/><ellipse cx="226.06" cy="50.252" rx="5.973" ry="5.998"/><path d="M214.42 39.006c2.468 0 4.473 2.013 4.473 4.494 0 2.484-2.005 4.497-4.472 4.497a4.488 4.488 0 01-4.481-4.497 4.487 4.487 0 014.48-4.494z"/><ellipse cx="204.071" cy="37.508" rx="4.476" ry="4.495"/><ellipse cx="193.724" cy="31.5" rx="4.481" ry="4.5"/><path d="M183.376 30c-.781 0-1.552-.2-2.229-.593-2.141-1.256-2.876-4.002-1.662-6.14.823-1.407 2.305-2.262 3.89-2.262a4.5 4.5 0 012.23.592c2.123 1.23 2.876 3.967 1.68 6.117-.852 1.437-2.34 2.286-3.91 2.286zm-10.345-5.997a4.445 4.445 0 01-2.216-.59 4.546 4.546 0 01-1.68-6.152A4.515 4.515 0 01173.03 15c.787 0 1.56.209 2.246.607 2.118 1.247 2.85 3.986 1.66 6.116-.843 1.421-2.318 2.279-3.906 2.279zM162.682 18a4.438 4.438 0 01-2.232-.6 4.426 4.426 0 01-2.09-2.71 4.57 4.57 0 01.437-3.434A4.502 4.502 0 01162.683 9c.787 0 1.558.206 2.24.603a4.53 4.53 0 011.651 6.153A4.537 4.537 0 01162.682 18zm156.943-6l-.009 3.003a7.393 7.393 0 01-5.277-2.197 7.439 7.439 0 01-2.185-5.306c0-4.131 3.349-7.5 7.471-7.5 4.116.012 7.465 3.375 7.471 7.5-.006 4.137-3.357 7.503-7.47 7.503V12z"/><ellipse cx="319.625" cy="7.502" rx="7.47" ry="7.502"/><ellipse cx="319.625" cy="7.502" rx="7.47" ry="7.502"/><ellipse cx="319.616" cy="7.506" rx="7.468" ry="7.5"/><ellipse cx="319.616" cy="7.506" rx="7.468" ry="7.5"/><ellipse cx="319.616" cy="7.502" rx="7.461" ry="7.492"/><ellipse cx="301.699" cy="7.502" rx="7.47" ry="7.502"/><ellipse cx="319.616" cy="7.506" rx="7.468" ry="7.5"/><path d="M283.76 15.003a7.376 7.376 0 01-5.286-2.213 7.422 7.422 0 01-2.173-5.302 7.435 7.435 0 012.173-5.285A7.423 7.423 0 01283.77.006c4.12 0 7.468 3.36 7.474 7.491a7.44 7.44 0 01-2.179 5.3 7.39 7.39 0 01-5.29 2.203h-.015v.003z"/><ellipse cx="267.343" cy="7.506" rx="5.974" ry="6"/><path d="M252.385 13.494a5.897 5.897 0 01-4.218-1.758 5.942 5.942 0 01-1.732-4.248 5.937 5.937 0 011.723-4.216 5.921 5.921 0 014.245-1.77c3.29 0 5.969 2.686 5.975 5.994-.006 3.31-2.675 5.996-5.957 5.996h-.036v.002z"/><ellipse cx="237.467" cy="7.506" rx="5.974" ry="6"/><ellipse cx="224.022" cy="7.506" rx="4.481" ry="4.5"/><ellipse cx="212.076" cy="7.512" rx="4.481" ry="4.5"/><ellipse cx="200.13" cy="7.506" rx="4.481" ry="4.5"/><path d="M188.166 12.006c-2.44-.009-4.447-2.013-4.472-4.473.018-2.52 2.03-4.527 4.48-4.527 2.452 0 4.464 2.007 4.482 4.476-.018 2.511-2.027 4.524-4.481 4.524h-.01zM176.22 12c-2.451 0-4.46-2.007-4.478-4.482 0-2.496 2.01-4.512 4.48-4.512 2.452.009 4.464 2.007 4.494 4.466-.03 2.526-2.042 4.53-4.493 4.53h-.003V12zm-11.955 0c-2.458 0-4.46-2.01-4.466-4.485 0-2.493 2.008-4.509 4.48-4.509a4.506 4.506 0 014.482 4.5C168.749 9.99 166.74 12 164.283 12h-.018z"/></g><g transform="translate(.248 .255)"><ellipse cx="7.471" cy="7.502" rx="7.47" ry="7.502"/><ellipse cx="7.471" cy="7.502" rx="7.47" ry="7.502"/><ellipse cx="7.471" cy="7.506" rx="7.471" ry="7.503"/><ellipse cx="7.477" cy="7.502" rx="7.47" ry="7.502"/><ellipse cx="7.477" cy="7.502" rx="7.47" ry="7.502"/><ellipse cx="7.477" cy="7.506" rx="7.465" ry="7.497"/><ellipse cx="25.4" cy="7.502" rx="7.47" ry="7.502"/><ellipse cx="7.477" cy="7.502" rx="7.47" ry="7.502"/><path d="M43.318 15.003c-4.117 0-7.462-3.369-7.462-7.5s3.348-7.494 7.462-7.5c2.01 0 3.883.78 5.295 2.2a7.474 7.474 0 012.176 5.306 7.456 7.456 0 01-2.176 5.29 7.396 7.396 0 01-5.295 2.204z"/><ellipse cx="59.754" cy="7.506" rx="5.977" ry="6.003"/><path d="M74.699 13.503a5.937 5.937 0 01-4.233-1.758 5.974 5.974 0 01-1.745-4.242 5.98 5.98 0 011.745-4.236 5.912 5.912 0 014.215-1.755c1.616 0 3.119.627 4.248 1.764a5.968 5.968 0 011.738 4.245 5.948 5.948 0 01-1.732 4.224 5.973 5.973 0 01-4.236 1.758z"/><ellipse cx="89.629" cy="7.502" rx="5.973" ry="5.998"/><ellipse cx="103.072" cy="7.503" rx="4.481" ry="4.5"/><ellipse cx="115.023" cy="7.503" rx="4.481" ry="4.5"/><ellipse cx="126.966" cy="7.506" rx="4.481" ry="4.5"/><path d="M138.915 12.006c-2.45 0-4.46-2.013-4.478-4.482.01-2.508 2.023-4.518 4.481-4.518 2.451.009 4.46 2.01 4.484 4.469-.024 2.524-2.037 4.531-4.487 4.531zm11.943 0c-2.45-.009-4.463-2.019-4.48-4.482.017-2.499 2.026-4.509 4.477-4.518 2.465 0 4.478 2.007 4.49 4.485 0 2.496-2.007 4.515-4.48 4.515h-.007zm11.962 0a4.433 4.433 0 01-3.178-1.328 4.496 4.496 0 01-1.31-3.187c0-2.467 2.01-4.485 4.475-4.485a4.493 4.493 0 014.487 4.5c0 2.481-2.001 4.5-4.475 4.5zm11.948 0a4.437 4.437 0 01-3.18-1.328 4.478 4.478 0 01-1.304-3.187 4.494 4.494 0 014.484-4.485c1.202 0 2.333.468 3.174 1.321a4.458 4.458 0 011.304 3.188c-.009 2.468-2.004 4.482-4.466 4.491h-.012z"/><ellipse cx="24.715" cy="47.882" rx="7.47" ry="7.502"/><ellipse cx="24.715" cy="47.876" rx="7.47" ry="7.502"/><ellipse cx="24.715" cy="47.882" rx="7.47" ry="7.502"/><ellipse cx="24.715" cy="47.876" rx="7.47" ry="7.502"/><ellipse cx="24.715" cy="47.876" rx="7.47" ry="7.502"/><ellipse cx="24.715" cy="47.876" rx="7.464" ry="7.495"/><ellipse cx="42.029" cy="43.217" rx="7.47" ry="7.502"/><ellipse cx="24.715" cy="47.876" rx="7.47" ry="7.502"/><path d="M59.347 46.057a7.483 7.483 0 01-7.22-5.557c-1.065-3.987 1.301-8.103 5.271-9.19a7.306 7.306 0 011.95-.255c3.378 0 6.35 2.29 7.208 5.563a7.445 7.445 0 01-.735 5.671 7.41 7.41 0 01-4.548 3.505 7.148 7.148 0 01-1.926.264z"/><ellipse cx="75.22" cy="34.285" rx="5.977" ry="6.003"/><path d="M89.638 36.404a5.979 5.979 0 01-5.767-4.451 5.956 5.956 0 01.592-4.546 5.929 5.929 0 013.641-2.795 6.066 6.066 0 011.546-.205 5.973 5.973 0 015.764 4.453 5.942 5.942 0 01-.587 4.538 5.939 5.939 0 01-3.643 2.803 5.838 5.838 0 01-1.546.203z"/><ellipse cx="104.072" cy="26.518" rx="5.973" ry="5.998"/><ellipse cx="117.056" cy="23.026" rx="4.481" ry="4.5"/><path d="M128.594 15.418c2.477 0 4.481 2.017 4.481 4.5 0 2.49-2.004 4.5-4.48 4.5a4.488 4.488 0 01-4.481-4.5c0-2.483 2.006-4.5 4.48-4.5z"/><ellipse cx="140.137" cy="16.817" rx="4.481" ry="4.5"/><path d="M151.681 18.212a4.495 4.495 0 01-4.32-3.317c-.637-2.434.792-4.902 3.17-5.529a4.519 4.519 0 011.15-.153c2.008 0 3.784 1.365 4.324 3.31.619 2.444-.808 4.9-3.165 5.532a4.375 4.375 0 01-1.159.157z"/><ellipse cx="64.917" cy="117.808" rx="7.471" ry="7.503"/><ellipse cx="64.911" cy="117.808" rx="7.471" ry="7.503"/><ellipse cx="64.917" cy="117.808" rx="7.471" ry="7.503"/><ellipse cx="64.917" cy="117.808" rx="7.471" ry="7.503"/><ellipse cx="64.917" cy="117.808" rx="7.471" ry="7.503"/><ellipse cx="64.917" cy="117.81" rx="7.458" ry="7.489"/><path d="M77.589 97.576c4.125 0 7.468 3.358 7.468 7.507 0 4.14-3.343 7.496-7.468 7.496s-7.471-3.356-7.471-7.496c0-4.15 3.347-7.507 7.47-7.507z"/><ellipse cx="64.917" cy="117.808" rx="7.471" ry="7.503"/><path d="M90.265 99.852a7.412 7.412 0 01-5.277-2.192c-2.908-2.914-2.914-7.675-.006-10.599a7.388 7.388 0 015.29-2.206c1.998 0 3.874.781 5.288 2.212a7.427 7.427 0 012.18 5.28 7.468 7.468 0 01-7.474 7.505z"/><ellipse cx="101.884" cy="80.677" rx="5.977" ry="6.003"/><path d="M112.456 76.076a5.932 5.932 0 01-4.233-1.761 5.996 5.996 0 01-1.75-4.23 5.98 5.98 0 011.756-4.251 5.92 5.92 0 014.227-1.758 5.92 5.92 0 014.224 1.764 5.93 5.93 0 011.753 4.224 5.984 5.984 0 01-1.762 4.263 5.929 5.929 0 01-4.215 1.749z"/><ellipse cx="123.007" cy="59.466" rx="5.971" ry="5.997"/><ellipse cx="132.509" cy="49.922" rx="4.481" ry="4.5"/><ellipse cx="140.963" cy="41.441" rx="4.481" ry="4.5"/><ellipse cx="149.411" cy="32.953" rx="4.481" ry="4.5"/><path d="M157.868 28.965a4.486 4.486 0 01-3.165-1.303c-1.757-1.78-1.75-4.633-.01-6.378a4.494 4.494 0 013.175-1.313c1.181 0 2.299.457 3.144 1.291 1.765 1.814 1.747 4.661.015 6.39a4.411 4.411 0 01-3.16 1.313zm-23.314 136.718c-.656 0-1.31-.08-1.934-.255-3.973-1.064-6.342-5.186-5.286-9.179.884-3.282 3.853-5.56 7.223-5.56.648 0 1.295.082 1.925.251 3.98 1.067 6.348 5.189 5.292 9.182-.884 3.283-3.856 5.56-7.22 5.56z"/><path d="M134.548 165.683a7.25 7.25 0 01-1.925-.252c-3.976-1.067-6.34-5.18-5.292-9.179.881-3.284 3.853-5.564 7.217-5.564.656 0 1.31.083 1.937.258 3.976 1.073 6.34 5.192 5.274 9.188a7.474 7.474 0 01-7.211 5.549z"/><path d="M134.548 150.68c4.128 0 7.471 3.36 7.471 7.505 0 4.14-3.343 7.498-7.471 7.498-4.122 0-7.468-3.357-7.468-7.498 0-4.145 3.346-7.506 7.468-7.506z"/><path d="M134.548 165.683c-.651 0-1.298-.08-1.928-.255-3.98-1.064-6.351-5.186-5.286-9.185.884-3.279 3.85-5.564 7.214-5.564a7.37 7.37 0 011.937.261c3.98 1.067 6.351 5.189 5.29 9.188-.891 3.278-3.857 5.555-7.227 5.555z"/><path d="M134.548 165.683c-.651 0-1.298-.08-1.928-.255-3.98-1.064-6.351-5.186-5.286-9.185.884-3.279 3.85-5.564 7.214-5.564a7.37 7.37 0 011.937.261c3.98 1.067 6.351 5.189 5.29 9.188-.891 3.278-3.857 5.555-7.227 5.555z"/><path d="M134.554 165.683a7.197 7.197 0 01-1.934-.264 7.383 7.383 0 01-4.536-3.49 7.435 7.435 0 01-.744-5.686c.872-3.27 3.838-5.554 7.205-5.554.654 0 1.307.082 1.94.257a7.376 7.376 0 014.524 3.487 7.502 7.502 0 01.744 5.695 7.457 7.457 0 01-7.199 5.555z"/><ellipse cx="139.187" cy="140.8" rx="7.471" ry="7.503"/><path d="M134.548 165.683c-.651 0-1.298-.08-1.928-.255-3.98-1.064-6.351-5.186-5.286-9.185.884-3.279 3.85-5.564 7.214-5.564a7.37 7.37 0 011.937.261c3.98 1.067 6.351 5.189 5.29 9.188-.891 3.278-3.857 5.555-7.227 5.555zm9.274-34.771a7.14 7.14 0 01-1.925-.255c-3.967-1.057-6.342-5.17-5.292-9.172.866-3.282 3.826-5.579 7.205-5.579a7.42 7.42 0 011.955.267 7.404 7.404 0 014.527 3.477 7.502 7.502 0 01.747 5.699 7.486 7.486 0 01-7.217 5.563zm4.254-29.449c3.302 0 5.98 2.687 5.98 6.006 0 3.317-2.678 6-5.98 6-3.3 0-5.975-2.683-5.975-6 0-3.318 2.675-6.006 5.975-6.006zm3.879-2.481c-.53 0-1.056-.07-1.567-.209a5.894 5.894 0 01-3.615-2.782 5.95 5.95 0 01-.59-4.564 5.955 5.955 0 015.754-4.436c.525 0 1.05.07 1.56.212 1.526.392 2.819 1.385 3.627 2.778a5.965 5.965 0 01.59 4.573 5.984 5.984 0 01-5.76 4.428z"/><ellipse cx="155.805" cy="78.492" rx="5.968" ry="5.994"/><ellipse cx="159.288" cy="65.453" rx="4.481" ry="4.5"/><ellipse cx="162.379" cy="53.859" rx="4.481" ry="4.5"/><ellipse cx="165.482" cy="42.275" rx="4.476" ry="4.495"/><path d="M168.56 35.176a4.64 4.64 0 01-1.12-.14c-2.415-.671-3.826-3.136-3.2-5.509.55-1.983 2.331-3.348 4.343-3.348.373 0 .759.056 1.126.15 2.421.68 3.825 3.15 3.186 5.523a4.481 4.481 0 01-4.334 3.324zm46.401 130.515c-3.37 0-6.336-2.293-7.22-5.557-1.059-4.005 1.313-8.127 5.283-9.194a7.368 7.368 0 011.928-.251c3.37 0 6.336 2.28 7.215 5.545 1.065 4.008-1.307 8.13-5.29 9.196a7.057 7.057 0 01-1.916.261z"/><path d="M214.961 165.691c-3.37 0-6.336-2.293-7.21-5.557-1.063-4.005 1.303-8.127 5.285-9.194a7.479 7.479 0 019.145 5.303c1.06 3.981-1.31 8.103-5.276 9.188a7.458 7.458 0 01-1.944.26z"/><path d="M214.961 150.689c4.123 0 7.465 3.357 7.465 7.496 0 4.15-3.342 7.506-7.465 7.506-4.131 0-7.474-3.357-7.474-7.506 0-4.14 3.343-7.496 7.474-7.496z"/><path d="M214.97 165.691c-3.37 0-6.345-2.293-7.229-5.557-1.053-4.014 1.313-8.136 5.286-9.2a7.488 7.488 0 011.934-.263c3.379 0 6.345 2.296 7.218 5.563 1.053 3.99-1.31 8.112-5.274 9.194a7.175 7.175 0 01-1.935.263z"/><path d="M214.97 165.691c-3.37 0-6.345-2.293-7.229-5.557-1.053-4.014 1.313-8.136 5.286-9.2a7.488 7.488 0 011.934-.263c3.379 0 6.345 2.296 7.218 5.563 1.053 3.99-1.31 8.112-5.274 9.194a7.175 7.175 0 01-1.935.263z"/><path d="M214.952 165.683c-3.37 0-6.336-2.285-7.21-5.549-1.06-4.005 1.312-8.118 5.288-9.188a7.242 7.242 0 011.931-.257c3.379 0 6.336 2.29 7.203 5.56a7.48 7.48 0 01-.735 5.672 7.483 7.483 0 01-4.542 3.507 7.351 7.351 0 01-1.935.255zm-4.637-32.379c4.122 0 7.465 3.357 7.465 7.5 0 4.145-3.343 7.502-7.465 7.502-4.132 0-7.474-3.357-7.474-7.502 0-4.143 3.342-7.5 7.474-7.5z"/><path d="M214.97 165.691c-3.37 0-6.345-2.293-7.229-5.557-1.053-4.014 1.313-8.136 5.286-9.2a7.488 7.488 0 011.934-.263c3.379 0 6.345 2.296 7.218 5.563 1.053 3.99-1.31 8.112-5.274 9.194a7.175 7.175 0 01-1.935.263zm-9.294-34.779c-3.361 0-6.327-2.28-7.212-5.545a7.47 7.47 0 01.744-5.699 7.388 7.388 0 014.542-3.495 7.238 7.238 0 011.935-.264c3.37 0 6.335 2.294 7.202 5.573a7.422 7.422 0 01-.756 5.698 7.352 7.352 0 01-4.533 3.475 7.245 7.245 0 01-1.922.257zm-4.251-17.431a5.996 5.996 0 01-5.776-4.444 5.963 5.963 0 01.6-4.568 5.976 5.976 0 013.633-2.794 5.92 5.92 0 011.558-.2c2.687 0 5.059 1.823 5.767 4.442.848 3.19-1.042 6.495-4.224 7.355a6.02 6.02 0 01-1.558.209zm-3.888-14.499c-2.687 0-5.05-1.829-5.745-4.445a5.95 5.95 0 01.59-4.555 5.902 5.902 0 013.636-2.791 5.892 5.892 0 011.558-.206c2.693 0 5.056 1.832 5.756 4.45a6 6 0 01-.61 4.562 5.936 5.936 0 01-3.635 2.782 5.885 5.885 0 01-1.55.203zm-3.851-14.487c-2.693 0-5.059-1.826-5.758-4.445a5.976 5.976 0 015.767-7.546c2.702 0 5.06 1.831 5.758 4.456a5.986 5.986 0 01-.59 4.535 5.9 5.9 0 01-3.63 2.797c-.5.132-1.025.203-1.547.203z"/><ellipse cx="190.212" cy="65.459" rx="4.481" ry="4.5"/><path d="M187.108 58.362c-1.998 0-3.774-1.359-4.309-3.31a4.518 4.518 0 01.447-3.452 4.445 4.445 0 012.724-2.087 4.452 4.452 0 011.152-.152 4.5 4.5 0 014.324 3.322c.64 2.431-.796 4.899-3.177 5.529-.359.097-.753.15-1.16.15zm-3.084-20.584a4.487 4.487 0 014.48 4.494 4.488 4.488 0 01-4.48 4.497c-2.467 0-4.472-2.014-4.472-4.497 0-2.481 2.005-4.494 4.472-4.494zm-3.089-2.602a4.483 4.483 0 01-4.331-3.343c-.607-2.391.808-4.843 3.15-5.499a4.704 4.704 0 011.181-.157 4.486 4.486 0 014.332 3.35c.63 2.343-.774 4.817-3.15 5.481a4.06 4.06 0 01-1.182.168zm103.663 90.147c-1.995 0-3.868-.79-5.286-2.197-2.905-2.927-2.905-7.69 0-10.611a7.4 7.4 0 015.277-2.186 7.46 7.46 0 015.277 2.174c2.926 2.942 2.926 7.706.018 10.632a7.483 7.483 0 01-5.286 2.188z"/><path d="M284.598 125.323c-1.995 0-3.868-.79-5.286-2.197a7.501 7.501 0 01-2.179-5.309c0-2.003.778-3.893 2.188-5.317a7.409 7.409 0 015.277-2.189c1.999 0 3.872.791 5.286 2.198 2.896 2.909 2.896 7.672.01 10.599-1.436 1.435-3.31 2.215-5.296 2.215z"/><path d="M284.598 125.311a7.42 7.42 0 01-5.286-2.185c-2.914-2.924-2.905-7.69.003-10.611a7.365 7.365 0 015.283-2.195c1.996 0 3.869.782 5.277 2.195 2.9 2.92 2.905 7.681.018 10.602a7.443 7.443 0 01-5.295 2.194z"/><path d="M284.598 125.311a7.442 7.442 0 01-5.289-2.185c-2.91-2.936-2.91-7.69-.006-10.611a7.438 7.438 0 015.286-2.195c1.996 0 3.878.782 5.286 2.195 2.9 2.92 2.905 7.684.01 10.602a7.438 7.438 0 01-5.287 2.194z"/><path d="M284.598 125.311a7.442 7.442 0 01-5.289-2.185c-2.91-2.936-2.91-7.69-.006-10.611a7.438 7.438 0 015.286-2.195c1.996 0 3.878.782 5.286 2.195 2.9 2.92 2.905 7.684.01 10.602a7.438 7.438 0 01-5.287 2.194z"/><path d="M284.59 125.311a7.427 7.427 0 01-5.28-2.194 7.43 7.43 0 01-2.177-5.29c0-2.013.77-3.903 2.188-5.312a7.354 7.354 0 015.268-2.186c1.996 0 3.869.782 5.286 2.198a7.452 7.452 0 012.18 5.29 7.514 7.514 0 01-2.189 5.318 7.464 7.464 0 01-5.277 2.176zm-12.673-12.723a7.463 7.463 0 01-5.291-2.188c-2.9-2.927-2.9-7.688-.006-10.608a7.425 7.425 0 015.288-2.198c2.005 0 3.887.791 5.286 2.213a7.434 7.434 0 012.18 5.284 7.474 7.474 0 01-2.18 5.318 7.463 7.463 0 01-5.277 2.18z"/><path d="M284.598 125.311a7.442 7.442 0 01-5.289-2.185c-2.91-2.936-2.91-7.69-.006-10.611a7.438 7.438 0 015.286-2.195c1.996 0 3.878.782 5.286 2.195 2.9 2.92 2.905 7.684.01 10.602a7.438 7.438 0 01-5.287 2.194zm-25.354-25.459a7.46 7.46 0 01-5.277-2.174 7.46 7.46 0 01-2.206-5.314c0-2.013.778-3.903 2.203-5.318a7.376 7.376 0 015.271-2.191c1.996 0 3.869.78 5.283 2.2a7.434 7.434 0 012.182 5.318 7.438 7.438 0 01-2.188 5.293c-1.39 1.413-3.266 2.186-5.268 2.186zm-11.622-13.154a5.951 5.951 0 01-4.227-1.763 6.002 6.002 0 01-1.753-4.228c0-1.607.624-3.12 1.753-4.262a5.942 5.942 0 014.227-1.758c1.592 0 3.092.624 4.227 1.764 2.32 2.335 2.329 6.138 0 8.484a5.94 5.94 0 01-4.227 1.763zm-10.562-10.61a5.893 5.893 0 01-4.228-1.77 5.933 5.933 0 01-1.75-4.233c0-1.602.618-3.114 1.75-4.245a5.9 5.9 0 014.227-1.764c1.59 0 3.098.627 4.227 1.77a5.958 5.958 0 011.742 4.266 5.964 5.964 0 01-1.772 4.22 5.826 5.826 0 01-4.197 1.756zm-10.563-10.613a5.934 5.934 0 01-4.218-1.755 5.923 5.923 0 01-1.763-4.245c0-1.602.633-3.114 1.772-4.242a5.874 5.874 0 014.203-1.752 5.92 5.92 0 014.224 1.77 5.973 5.973 0 011.75 4.233 5.926 5.926 0 01-1.76 4.239 5.862 5.862 0 01-4.208 1.752z"/><ellipse cx="216.991" cy="49.937" rx="4.481" ry="4.5"/><path d="M208.546 45.947a4.496 4.496 0 01-3.159-1.307c-1.76-1.77-1.76-4.617-.018-6.372a4.45 4.45 0 013.174-1.322c1.185 0 2.305.458 3.156 1.295 1.766 1.813 1.745 4.666-.003 6.393a4.373 4.373 0 01-3.15 1.313z"/><ellipse cx="200.092" cy="32.959" rx="4.481" ry="4.5"/><path d="M191.647 28.971a4.453 4.453 0 01-3.167-1.306c-1.763-1.817-1.76-4.593-.018-6.357.875-.873 1.995-1.334 3.177-1.334a4.37 4.37 0 013.176 1.343c.817.799 1.286 1.921 1.304 3.113 0 1.211-.455 2.35-1.304 3.215a4.433 4.433 0 01-3.168 1.326zm133.156 26.421a7.439 7.439 0 01-1.934-.258c-3.979-1.078-6.336-5.197-5.295-9.188a7.494 7.494 0 017.23-5.563c.648 0 1.285.085 1.91.246 3.997 1.09 6.366 5.213 5.3 9.2-.884 3.277-3.85 5.563-7.21 5.563z"/><path d="M324.803 55.392a7.439 7.439 0 01-1.934-.258c-3.982-1.081-6.345-5.21-5.28-9.2a7.457 7.457 0 017.197-5.551c.655 0 1.312.091 1.946.255 3.96 1.07 6.333 5.192 5.283 9.181-.885 3.287-3.85 5.573-7.212 5.573z"/><path d="M324.786 55.386a7.401 7.401 0 01-1.917-.252c-3.979-1.078-6.336-5.197-5.292-9.188a7.46 7.46 0 017.2-5.563c.655 0 1.303.091 1.937.261 3.979 1.081 6.348 5.198 5.286 9.184a7.477 7.477 0 01-7.214 5.558z"/><path d="M324.777 55.386a7.424 7.424 0 01-1.92-.252c-3.985-1.084-6.342-5.21-5.298-9.188.89-3.282 3.857-5.566 7.227-5.566.65 0 1.303.088 1.94.255 3.976 1.082 6.342 5.207 5.289 9.194a7.5 7.5 0 01-7.238 5.557z"/><path d="M324.777 55.386a7.424 7.424 0 01-1.92-.252c-3.985-1.084-6.342-5.21-5.298-9.188.89-3.282 3.857-5.566 7.227-5.566.65 0 1.303.088 1.94.255 3.976 1.082 6.342 5.207 5.289 9.194a7.5 7.5 0 01-7.238 5.557z"/><path d="M324.794 55.383a7.313 7.313 0 01-1.934-.258c-1.91-.51-3.517-1.746-4.53-3.477a7.484 7.484 0 01-.74-5.714c.842-3.258 3.81-5.545 7.187-5.545a7.51 7.51 0 011.943.261 7.39 7.39 0 014.527 3.486 7.482 7.482 0 01.75 5.692c-.876 3.272-3.833 5.555-7.203 5.555zm-17.319-4.65a7.673 7.673 0 01-1.926-.252c-3.976-1.073-6.345-5.189-5.3-9.188.89-3.283 3.85-5.563 7.21-5.563.662 0 1.32.092 1.959.267 3.955 1.054 6.327 5.173 5.277 9.175-.883 3.277-3.85 5.561-7.22 5.561z"/><path d="M324.777 55.386a7.424 7.424 0 01-1.92-.252c-3.985-1.084-6.342-5.21-5.298-9.188.89-3.282 3.857-5.566 7.227-5.566.65 0 1.303.088 1.94.255 3.976 1.082 6.342 5.207 5.289 9.194a7.5 7.5 0 01-7.238 5.557zm-34.615-9.32a7.647 7.647 0 01-1.907-.245 7.41 7.41 0 01-4.557-3.495 7.434 7.434 0 01-.744-5.708 7.472 7.472 0 019.145-5.29 7.396 7.396 0 014.533 3.488 7.454 7.454 0 01.753 5.693 7.487 7.487 0 01-7.223 5.557zm-15.87-5.763a5.96 5.96 0 01-1.558-.208 5.95 5.95 0 01-3.617-2.791c-.811-1.39-1.01-3.01-.59-4.568a5.952 5.952 0 015.76-4.438c.53 0 1.05.064 1.559.205a5.948 5.948 0 013.626 2.788 5.922 5.922 0 01.6 4.568 6.004 6.004 0 01-5.78 4.444zm-14.418-3.89a6.07 6.07 0 01-1.557-.206 5.953 5.953 0 01-3.633-2.794 5.928 5.928 0 01-.594-4.553c.682-2.616 3.054-4.46 5.75-4.46a5.98 5.98 0 015.2 3.012 5.914 5.914 0 01.577 4.568c-.666 2.594-3.029 4.433-5.743 4.433zm-14.44-3.883a5.93 5.93 0 01-1.54-.202 5.92 5.92 0 01-3.646-2.81 5.951 5.951 0 01-.572-4.555 5.95 5.95 0 015.742-4.42 5.983 5.983 0 015.2 2.991 5.94 5.94 0 01.586 4.543 5.975 5.975 0 01-5.77 4.454z"/><ellipse cx="232.453" cy="23.044" rx="4.481" ry="4.5"/><path d="M220.918 24.433c-.391 0-.781-.052-1.152-.152a4.5 4.5 0 011.152-8.847c.38 0 .765.049 1.132.143 2.415.677 3.822 3.147 3.186 5.524a4.458 4.458 0 01-4.318 3.332zm-11.54-3.107c-.394 0-.805-.053-1.19-.161a4.39 4.39 0 01-2.687-2.087 4.429 4.429 0 01-.438-3.427c.499-1.948 2.284-3.325 4.306-3.325.386 0 .778.052 1.155.152a4.465 4.465 0 012.748 2.122 4.477 4.477 0 01.42 3.418c-.5 1.927-2.275 3.308-4.314 3.308zm-11.562-3.107a4.27 4.27 0 01-1.154-.153c-2.381-.676-3.78-3.138-3.168-5.496.56-1.992 2.325-3.351 4.324-3.351.394 0 .796.056 1.187.158 1.096.278 2.066 1.013 2.672 2.044a4.5 4.5 0 01.484 3.434c-.554 2.011-2.331 3.364-4.345 3.364z"/></g></g><g fill="#000"><g transform="translate(25.654 3.246)"><ellipse cx="4.481" cy="88.512" rx="4.481" ry="4.5"/><ellipse cx="4.481" cy="88.512" rx="4.481" ry="4.5"/><ellipse cx="4.481" cy="88.512" rx="4.481" ry="4.5"/><ellipse cx="4.484" cy="88.512" rx="4.481" ry="4.5"/><ellipse cx="4.484" cy="88.512" rx="4.481" ry="4.5"/><ellipse cx="4.484" cy="88.512" rx="4.481" ry="4.5"/><ellipse cx="20.006" cy="79.512" rx="4.481" ry="4.5"/><ellipse cx="4.484" cy="88.512" rx="4.481" ry="4.5"/><path d="M39.406 68.262a4.505 4.505 0 01-1.637 6.147 4.491 4.491 0 01-6.127-1.647 4.511 4.511 0 011.646-6.147 4.46 4.46 0 016.118 1.647z"/><ellipse cx="49.758" cy="62.255" rx="2.989" ry="3.002"/><path d="M65.276 53.259a2.987 2.987 0 01-1.09 4.095 2.977 2.977 0 01-4.077-1.098 3.003 3.003 0 011.093-4.095 2.967 2.967 0 014.074 1.098z"/><ellipse cx="75.626" cy="47.256" rx="2.984" ry="2.997"/><ellipse cx="87.271" cy="40.506" rx="1.494" ry="1.5"/><ellipse cx="97.618" cy="34.508" rx="1.492" ry="1.498"/><ellipse cx="107.966" cy="28.509" rx="1.491" ry="1.497"/><path d="M119.609 21.759c.41.723.166 1.632-.548 2.047a1.498 1.498 0 01-2.045-.55 1.5 1.5 0 01.554-2.044 1.482 1.482 0 012.039.547zm10.354-5.994a1.51 1.51 0 01-.555 2.047 1.505 1.505 0 01-2.047-.55 1.514 1.514 0 01.554-2.05 1.489 1.489 0 012.048.553zm10.343-6.003a1.5 1.5 0 01-2.599 1.5 1.509 1.509 0 01.551-2.05 1.48 1.48 0 012.048.55z"/><ellipse cx="65.713" cy="150" rx="4.481" ry="4.5"/><ellipse cx="65.713" cy="150" rx="4.481" ry="4.5"/><ellipse cx="65.713" cy="150" rx="4.481" ry="4.5"/><ellipse cx="65.713" cy="149.994" rx="4.481" ry="4.5"/><ellipse cx="65.713" cy="149.994" rx="4.481" ry="4.5"/><ellipse cx="65.713" cy="150" rx="4.475" ry="4.494"/><ellipse cx="74.675" cy="134.409" rx="4.481" ry="4.5"/><ellipse cx="65.713" cy="149.994" rx="4.481" ry="4.5"/><path d="M85.877 114.925c2.148 1.237 2.883 3.99 1.643 6.15a4.485 4.485 0 01-6.124 1.644c-2.145-1.223-2.877-3.998-1.64-6.143a4.458 4.458 0 016.121-1.65z"/><ellipse cx="91.851" cy="104.531" rx="2.989" ry="3.002"/><path d="M100.813 88.948a2.988 2.988 0 011.096 4.091 2.977 2.977 0 01-4.08 1.098 2.996 2.996 0 01-1.086-4.095 2.956 2.956 0 014.07-1.094z"/><ellipse cx="106.788" cy="78.544" rx="2.984" ry="2.997"/><ellipse cx="113.509" cy="66.856" rx="1.492" ry="1.498"/><ellipse cx="119.48" cy="56.463" rx="1.492" ry="1.498"/><ellipse cx="125.458" cy="46.071" rx="1.492" ry="1.498"/><path d="M132.185 34.377c.713.421.952 1.334.545 2.05a1.501 1.501 0 01-2.044.554 1.517 1.517 0 01-.546-2.053 1.504 1.504 0 012.045-.551zm5.975-10.386c.712.405.957 1.334.542 2.047a1.507 1.507 0 01-2.042.554 1.518 1.518 0 01-.542-2.056 1.486 1.486 0 012.042-.545zm5.974-10.393c.712.412.957 1.327.548 2.047a1.491 1.491 0 01-2.045.544 1.5 1.5 0 01-.545-2.044 1.484 1.484 0 012.042-.547z"/><ellipse cx="149.356" cy="172.509" rx="4.481" ry="4.5"/><ellipse cx="149.356" cy="172.509" rx="4.481" ry="4.5"/><ellipse cx="149.356" cy="172.509" rx="4.481" ry="4.5"/><ellipse cx="149.356" cy="172.506" rx="4.481" ry="4.5"/><ellipse cx="149.356" cy="172.506" rx="4.481" ry="4.5"/><ellipse cx="149.356" cy="172.506" rx="4.481" ry="4.5"/><ellipse cx="149.356" cy="154.506" rx="4.481" ry="4.5"/><ellipse cx="149.356" cy="172.506" rx="4.481" ry="4.5"/><path d="M149.356 132c2.48 0 4.48 2.013 4.48 4.5-.005 2.472-2.013 4.5-4.48 4.506-2.48 0-4.481-2.028-4.481-4.506-.006-2.487 2.013-4.506 4.48-4.5z"/><ellipse cx="149.356" cy="120.003" rx="2.99" ry="3.003"/><path d="M149.356 102.003a2.98 2.98 0 012.987 2.997 2.988 2.988 0 11-5.975 0c0-1.663 1.336-3 2.988-2.997zm0-14.997A2.987 2.987 0 01152.337 90c0 1.657-1.337 3-2.981 3a2.994 2.994 0 01-2.988-3 2.99 2.99 0 012.988-2.994z"/><ellipse cx="149.356" cy="76.497" rx="1.491" ry="1.497"/><ellipse cx="149.35" cy="64.5" rx="1.494" ry="1.5"/><ellipse cx="149.356" cy="52.498" rx="1.492" ry="1.498"/><path d="M149.356 38.994c.829.009 1.49.68 1.49 1.503a1.494 1.494 0 01-1.49 1.497 1.499 1.499 0 01-1.494-1.497c.006-.83.67-1.491 1.494-1.503zm.006-11.997c.814 0 1.487.674 1.484 1.503 0 .823-.67 1.5-1.49 1.503a1.496 1.496 0 01-1.494-1.503c0-.832.668-1.494 1.5-1.503zM149.356 15a1.5 1.5 0 01-.006 2.997c-.82 0-1.494-.674-1.488-1.497a1.49 1.49 0 011.494-1.5zm79.762 137.244a4.506 4.506 0 011.64-6.147 4.477 4.477 0 016.12 1.647c1.231 2.159.506 4.905-1.64 6.15a4.46 4.46 0 01-6.12-1.65z"/><ellipse cx="232.992" cy="149.994" rx="4.481" ry="4.5"/><ellipse cx="232.992" cy="149.994" rx="4.481" ry="4.5"/><ellipse cx="232.992" cy="149.991" rx="4.478" ry="4.497"/><ellipse cx="232.992" cy="149.991" rx="4.478" ry="4.497"/><ellipse cx="232.992" cy="149.995" rx="4.476" ry="4.495"/><ellipse cx="224.031" cy="134.403" rx="4.481" ry="4.5"/><ellipse cx="232.992" cy="149.991" rx="4.478" ry="4.497"/><path d="M212.828 114.922a4.468 4.468 0 016.124 1.645c1.225 2.15.5 4.909-1.637 6.153-2.145 1.242-4.891.492-6.127-1.653-1.242-2.156-.498-4.913 1.64-6.144zm-5.974-13.393a2.991 2.991 0 012.987 2.997 2.997 2.997 0 01-2.987 3.006 2.998 2.998 0 01-2.99-3.006 2.99 2.99 0 012.99-2.997zm-8.959-12.587a2.973 2.973 0 014.078 1.094 2.996 2.996 0 01-1.093 4.095 2.962 2.962 0 01-4.074-1.101 2.981 2.981 0 011.09-4.088z"/><ellipse cx="191.918" cy="78.544" rx="2.984" ry="2.997"/><ellipse cx="185.197" cy="66.853" rx="1.492" ry="1.498"/><ellipse cx="179.219" cy="56.463" rx="1.492" ry="1.498"/><path d="M173.248 44.57c.826 0 1.49.67 1.49 1.496a1.493 1.493 0 11-2.984 0c0-.826.665-1.497 1.494-1.497zm-6.722-10.199a1.5 1.5 0 012.042.556 1.512 1.512 0 01-.548 2.051 1.496 1.496 0 01-2.042-.55 1.518 1.518 0 01.548-2.057zm-5.968-10.395a1.493 1.493 0 012.036.56 1.521 1.521 0 01-.546 2.05c-.72.41-1.628.167-2.044-.556a1.515 1.515 0 01.554-2.054zm-5.981-10.385a1.496 1.496 0 012.045.551c.405.719.178 1.638-.551 2.047a1.484 1.484 0 01-2.036-.55 1.492 1.492 0 01.542-2.047zm137.407 78.806a4.502 4.502 0 01-1.637-6.147 4.468 4.468 0 016.118-1.65 4.525 4.525 0 011.646 6.156 4.471 4.471 0 01-6.127 1.641z"/><ellipse cx="294.225" cy="88.503" rx="4.481" ry="4.5"/><ellipse cx="294.225" cy="88.503" rx="4.481" ry="4.5"/><ellipse cx="294.219" cy="88.503" rx="4.478" ry="4.497"/><ellipse cx="294.219" cy="88.503" rx="4.478" ry="4.497"/><path d="M291.984 92.397c-2.145-1.239-2.88-3.993-1.646-6.144a4.465 4.465 0 016.121-1.644c2.142 1.239 2.877 3.993 1.643 6.141a4.47 4.47 0 01-6.118 1.647z"/><ellipse cx="278.7" cy="79.503" rx="4.481" ry="4.5"/><ellipse cx="294.219" cy="88.503" rx="4.478" ry="4.497"/><path d="M259.296 68.253a4.461 4.461 0 016.118-1.65c2.13 1.242 2.88 4.002 1.646 6.147-1.225 2.154-3.985 2.883-6.127 1.644a4.498 4.498 0 01-1.637-6.141zm-10.352-9a2.997 2.997 0 012.993 3.003c0 1.656-1.338 3-2.993 3a2.991 2.991 0 01-2.984-3 2.99 2.99 0 012.984-3.003zm-15.508-5.997a2.957 2.957 0 014.073-1.101 2.995 2.995 0 011.083 4.095c-.84 1.435-2.66 1.93-4.07 1.095a2.975 2.975 0 01-1.086-4.089z"/><ellipse cx="223.073" cy="47.256" rx="2.984" ry="2.997"/><path d="M211.433 39.003c.823 0 1.488.67 1.488 1.497 0 .827-.665 1.5-1.488 1.5a1.498 1.498 0 010-2.997z"/><ellipse cx="201.084" cy="34.508" rx="1.492" ry="1.498"/><ellipse cx="190.736" cy="28.5" rx="1.494" ry="1.5"/><path d="M179.097 21.75a1.493 1.493 0 012.038-.55c.713.409.955 1.33.56 2.053a1.503 1.503 0 01-2.047.547 1.506 1.506 0 01-.551-2.05zm-10.348-6.006a1.489 1.489 0 012.036-.541 1.53 1.53 0 01.557 2.053 1.504 1.504 0 01-2.048.547 1.51 1.51 0 01-.545-2.059zM158.4 9.753c.42-.72 1.33-.964 2.047-.547.71.415.955 1.33.543 2.05a1.488 1.488 0 01-2.04.544 1.502 1.502 0 01-.55-2.047zM316.635 9c-2.474.006-4.478-2.007-4.478-4.5 0-2.484 2.004-4.5 4.48-4.5a4.5 4.5 0 014.482 4.506c0 2.487-2.005 4.5-4.484 4.494z"/><ellipse cx="316.638" cy="4.5" rx="4.481" ry="4.5"/><ellipse cx="316.638" cy="4.5" rx="4.481" ry="4.5"/><ellipse cx="316.629" cy="4.506" rx="4.481" ry="4.5"/><ellipse cx="316.629" cy="4.506" rx="4.481" ry="4.5"/><ellipse cx="316.629" cy="4.502" rx="4.476" ry="4.495"/><ellipse cx="298.711" cy="4.506" rx="4.481" ry="4.5"/><ellipse cx="316.629" cy="4.506" rx="4.481" ry="4.5"/><path d="M276.301 4.506a4.483 4.483 0 014.481-4.5c2.459 0 4.48 2.016 4.487 4.5a4.497 4.497 0 01-4.487 4.5 4.488 4.488 0 01-4.48-4.5z"/><ellipse cx="264.355" cy="4.506" rx="2.987" ry="3"/><path d="M246.432 4.506a2.977 2.977 0 012.984-3 2.988 2.988 0 012.984 3c0 1.657-1.333 3-2.984 2.994a2.97 2.97 0 01-2.984-2.994z"/><ellipse cx="234.48" cy="4.506" rx="2.984" ry="2.997"/><ellipse cx="221.034" cy="4.506" rx="1.494" ry="1.5"/><ellipse cx="209.088" cy="4.511" rx="1.492" ry="1.498"/><ellipse cx="197.143" cy="4.502" rx="1.492" ry="1.498"/><path d="M183.691 4.5a1.5 1.5 0 011.497-1.497c.823 0 1.487.67 1.49 1.497a1.493 1.493 0 01-1.49 1.5c-.823 0-1.488-.67-1.497-1.5zm-11.946-.003a1.5 1.5 0 011.49-1.494c.83 0 1.494.673 1.503 1.497a1.503 1.503 0 01-1.502 1.5c-.826.006-1.488-.665-1.491-1.503zm-11.945.009c0-.833.664-1.5 1.496-1.5.823 0 1.49.677 1.49 1.5-.003.83-.676 1.5-1.49 1.5a1.491 1.491 0 01-1.497-1.5z"/></g><g transform="translate(3.238 3.261)"><ellipse cx="4.481" cy="4.5" rx="4.481" ry="4.5"/><ellipse cx="4.481" cy="4.5" rx="4.481" ry="4.5"/><ellipse cx="4.481" cy="4.5" rx="4.481" ry="4.5"/><ellipse cx="4.487" cy="4.5" rx="4.481" ry="4.5"/><ellipse cx="4.487" cy="4.5" rx="4.481" ry="4.5"/><ellipse cx="4.487" cy="4.496" rx="4.476" ry="4.495"/><ellipse cx="22.41" cy="4.5" rx="4.481" ry="4.5"/><ellipse cx="4.487" cy="4.5" rx="4.481" ry="4.5"/><path d="M44.814 4.5a4.483 4.483 0 01-4.48 4.5c-2.459-.003-4.481-2.022-4.481-4.5 0-2.481 2.013-4.5 4.48-4.5 2.48-.009 4.487 2.019 4.481 4.5z"/><ellipse cx="56.763" cy="4.496" rx="2.989" ry="3.002"/><path d="M74.684 4.5A2.98 2.98 0 0171.7 7.503 2.989 2.989 0 0168.715 4.5 2.983 2.983 0 0171.7 1.503 2.975 2.975 0 0174.684 4.5z"/><ellipse cx="86.639" cy="4.494" rx="2.984" ry="2.997"/><ellipse cx="100.081" cy="4.496" rx="1.492" ry="1.498"/><ellipse cx="112.033" cy="4.496" rx="1.492" ry="1.498"/><ellipse cx="123.976" cy="4.496" rx="1.492" ry="1.498"/><path d="M137.425 4.5a1.5 1.5 0 01-1.497 1.497c-.82.006-1.488-.673-1.49-1.497 0-.83.67-1.497 1.49-1.497a1.5 1.5 0 011.497 1.497zm11.949.003c0 .82-.671 1.5-1.494 1.494a1.508 1.508 0 01-1.5-1.497 1.502 1.502 0 011.5-1.497 1.494 1.494 0 011.494 1.5zm11.949-.003a1.494 1.494 0 11-2.99 0c0-.83.667-1.497 1.49-1.497.833-.006 1.5.665 1.5 1.497zm11.943-.003a1.49 1.49 0 01-1.488 1.5c-.83 0-1.5-.664-1.494-1.497a1.49 1.49 0 011.494-1.497 1.48 1.48 0 011.488 1.494z"/><ellipse cx="21.725" cy="44.874" rx="4.481" ry="4.5"/><ellipse cx="21.725" cy="44.871" rx="4.481" ry="4.5"/><ellipse cx="21.725" cy="44.874" rx="4.481" ry="4.5"/><ellipse cx="21.725" cy="44.871" rx="4.481" ry="4.5"/><ellipse cx="21.725" cy="44.871" rx="4.481" ry="4.5"/><ellipse cx="21.725" cy="44.868" rx="4.475" ry="4.494"/><ellipse cx="39.039" cy="40.212" rx="4.481" ry="4.5"/><ellipse cx="21.725" cy="44.871" rx="4.481" ry="4.5"/><path d="M60.678 34.389a4.5 4.5 0 01-3.168 5.514c-2.38.636-4.848-.787-5.49-3.181a4.502 4.502 0 013.168-5.514 4.471 4.471 0 015.49 3.181zM72.23 28.28a2.994 2.994 0 012.987 3c0 1.657-1.338 3-2.987 3a2.993 2.993 0 01-2.99-3c0-1.658 1.336-3 2.99-3zm17.308-1.652a2.98 2.98 0 01-2.11 3.67 2.979 2.979 0 01-3.657-2.123 2.982 2.982 0 012.106-3.665 2.98 2.98 0 013.66 2.118z"/><ellipse cx="101.082" cy="23.514" rx="2.984" ry="2.997"/><ellipse cx="114.066" cy="20.021" rx="1.491" ry="1.497"/><ellipse cx="125.604" cy="16.919" rx="1.494" ry="1.5"/><ellipse cx="137.147" cy="13.809" rx="1.492" ry="1.498"/><path d="M150.138 10.316c.199.808-.26 1.623-1.059 1.84-.787.218-1.607-.267-1.83-1.063a1.509 1.509 0 011.06-1.835 1.5 1.5 0 011.83 1.058z"/><ellipse cx="61.927" cy="114.812" rx="4.481" ry="4.5"/><ellipse cx="61.921" cy="114.812" rx="4.481" ry="4.5"/><ellipse cx="61.927" cy="114.812" rx="4.481" ry="4.5"/><ellipse cx="61.927" cy="114.806" rx="4.487" ry="4.506"/><ellipse cx="61.927" cy="114.806" rx="4.487" ry="4.506"/><ellipse cx="61.927" cy="114.806" rx="4.475" ry="4.494"/><ellipse cx="74.599" cy="102.077" rx="4.481" ry="4.5"/><ellipse cx="61.927" cy="114.806" rx="4.487" ry="4.506"/><path d="M90.443 86.165a4.504 4.504 0 01.006 6.366 4.487 4.487 0 01-6.336 0c-1.76-1.761-1.747-4.608-.006-6.366a4.46 4.46 0 016.336 0z"/><ellipse cx="98.894" cy="77.673" rx="2.989" ry="3.002"/><path d="M111.566 64.955a2.982 2.982 0 01.003 4.236 2.972 2.972 0 01-4.224 0 2.992 2.992 0 010-4.233 2.953 2.953 0 014.22-.003z"/><ellipse cx="120.017" cy="56.46" rx="2.984" ry="2.997"/><ellipse cx="129.519" cy="46.916" rx="1.491" ry="1.497"/><ellipse cx="137.973" cy="38.435" rx="1.494" ry="1.5"/><ellipse cx="146.421" cy="29.946" rx="1.492" ry="1.498"/><path d="M155.93 20.399a1.508 1.508 0 01-.005 2.12 1.493 1.493 0 01-2.11-.002 1.51 1.51 0 010-2.118 1.505 1.505 0 012.116 0zM127.232 154.02c.646-2.391 3.095-3.823 5.494-3.181a4.508 4.508 0 013.17 5.51c-.644 2.4-3.094 3.833-5.493 3.188-2.393-.648-3.807-3.112-3.17-5.517z"/><path d="M127.232 154.02c.649-2.4 3.098-3.83 5.497-3.181a4.508 4.508 0 013.165 5.517 4.496 4.496 0 01-5.494 3.181c-2.39-.648-3.804-3.112-3.168-5.517z"/><path d="M131.558 150.67c2.48 0 4.487 2.023 4.487 4.51 0 2.487-2.008 4.5-4.487 4.5a4.49 4.49 0 01-4.484-4.5c0-2.487 2.007-4.51 4.484-4.51z"/><path d="M127.235 154.011c.646-2.391 3.092-3.826 5.49-3.181a4.514 4.514 0 013.172 5.52 4.484 4.484 0 01-5.494 3.181c-2.39-.642-3.807-3.124-3.168-5.52z"/><path d="M127.235 154.011c.646-2.391 3.092-3.826 5.49-3.181a4.514 4.514 0 013.172 5.52 4.484 4.484 0 01-5.494 3.181c-2.39-.642-3.807-3.124-3.168-5.52z"/><path d="M127.235 154.02c.646-2.4 3.095-3.83 5.494-3.181 2.38.642 3.795 3.102 3.162 5.51a4.478 4.478 0 01-5.488 3.176c-2.393-.636-3.807-3.118-3.168-5.505z"/><ellipse cx="136.197" cy="137.792" rx="4.481" ry="4.5"/><path d="M127.235 154.011c.646-2.391 3.092-3.826 5.49-3.181a4.514 4.514 0 013.172 5.52 4.484 4.484 0 01-5.494 3.181c-2.39-.642-3.807-3.124-3.168-5.52zm14.76-37.951a4.491 4.491 0 013.168 5.51c-.642 2.389-3.1 3.824-5.487 3.182-2.396-.636-3.802-3.12-3.171-5.505.636-2.415 3.102-3.838 5.49-3.187z"/><ellipse cx="145.085" cy="104.462" rx="2.989" ry="3.002"/><path d="M149.73 87.084a2.977 2.977 0 012.114 3.668 2.989 2.989 0 01-3.66 2.112 2.976 2.976 0 01-2.107-3.659 2.96 2.96 0 013.652-2.121z"/><ellipse cx="152.815" cy="75.488" rx="2.98" ry="2.993"/><ellipse cx="156.298" cy="62.447" rx="1.494" ry="1.5"/><ellipse cx="159.388" cy="50.858" rx="1.492" ry="1.498"/><ellipse cx="162.492" cy="39.269" rx="1.492" ry="1.498"/><path d="M165.966 26.226a1.5 1.5 0 011.053 1.84 1.496 1.496 0 01-1.83 1.058 1.518 1.518 0 01-1.061-1.837 1.514 1.514 0 011.838-1.061zm41.671 130.122a4.527 4.527 0 013.17-5.52c2.384-.639 4.846.79 5.488 3.182.642 2.407-.778 4.878-3.168 5.526-2.39.639-4.84-.788-5.49-3.188z"/><path d="M207.637 156.348c-.637-2.397.78-4.869 3.17-5.52 2.381-.639 4.846.782 5.488 3.19.64 2.4-.787 4.86-3.177 5.518-2.38.639-4.832-.788-5.481-3.188z"/><ellipse cx="211.971" cy="155.18" rx="4.481" ry="4.5"/><path d="M207.637 156.342c-.637-2.391.78-4.869 3.17-5.514 2.398-.651 4.852.782 5.497 3.182a4.519 4.519 0 01-3.168 5.526c-2.396.639-4.859-.806-5.5-3.194z"/><path d="M207.637 156.342c-.637-2.391.78-4.869 3.17-5.514 2.398-.651 4.852.782 5.497 3.182a4.519 4.519 0 01-3.168 5.526c-2.396.639-4.859-.806-5.5-3.194z"/><path d="M207.64 156.342a4.508 4.508 0 013.17-5.514c2.387-.642 4.837.782 5.476 3.19.651 2.392-.778 4.86-3.168 5.506-2.39.645-4.84-.794-5.478-3.182z"/><ellipse cx="207.324" cy="137.798" rx="4.481" ry="4.5"/><path d="M207.637 156.342c-.637-2.391.78-4.869 3.17-5.514 2.398-.651 4.852.782 5.497 3.182a4.519 4.519 0 01-3.168 5.526c-2.396.639-4.859-.806-5.5-3.194zm-6.107-40.282a4.472 4.472 0 015.482 3.187c.643 2.385-.773 4.872-3.162 5.505-2.392.654-4.848-.793-5.496-3.181a4.5 4.5 0 013.177-5.511zm-5.986-10.811a2.999 2.999 0 012.118-3.673c1.585-.44 3.235.519 3.658 2.118.438 1.599-.517 3.243-2.118 3.682-1.583.422-3.229-.534-3.658-2.127zm-1.75-18.165a2.955 2.955 0 013.658 2.121 2.99 2.99 0 01-2.118 3.668c-1.592.439-3.223-.52-3.65-2.115-.428-1.605.518-3.251 2.11-3.674zm-5.972-10.824a2.98 2.98 0 012.103-3.661 2.966 2.966 0 013.65 2.12 2.983 2.983 0 01-2.1 3.665c-1.599.434-3.221-.522-3.653-2.124z"/><ellipse cx="187.222" cy="62.451" rx="1.492" ry="1.498"/><path d="M182.687 51.246a1.496 1.496 0 011.05-1.837 1.502 1.502 0 011.837 1.06 1.509 1.509 0 01-1.059 1.835 1.483 1.483 0 01-1.828-1.058z"/><ellipse cx="181.034" cy="39.269" rx="1.492" ry="1.498"/><path d="M177.56 26.226c.805-.202 1.61.255 1.814 1.067a1.499 1.499 0 01-1.056 1.831 1.5 1.5 0 01-1.826-1.063 1.528 1.528 0 011.068-1.835zm100.871 91.767c-1.741-1.749-1.744-4.599.01-6.363 1.74-1.749 4.576-1.749 6.335 0a4.522 4.522 0 010 6.372 4.484 4.484 0 01-6.345-.009z"/><path d="M278.431 117.993a4.517 4.517 0 01.01-6.363 4.468 4.468 0 016.335 0 4.53 4.53 0 010 6.372 4.484 4.484 0 01-6.345-.009z"/><path d="M278.431 117.993c-1.75-1.758-1.741-4.599.01-6.363a4.444 4.444 0 016.326 0 4.52 4.52 0 01.009 6.363 4.484 4.484 0 01-6.345 0z"/><path d="M278.422 117.987c-1.732-1.746-1.75-4.608 0-6.369 1.76-1.752 4.6-1.755 6.345.003a4.541 4.541 0 01.009 6.381 4.506 4.506 0 01-6.354-.015z"/><path d="M278.422 117.987c-1.732-1.746-1.75-4.608 0-6.369 1.76-1.752 4.6-1.755 6.345.003a4.541 4.541 0 01.009 6.381 4.506 4.506 0 01-6.354-.015z"/><path d="M278.44 117.987c-1.76-1.752-1.753-4.599 0-6.357a4.44 4.44 0 016.321.009 4.503 4.503 0 01-.003 6.354c-1.747 1.749-4.585 1.749-6.318-.006zm-12.69-12.72a4.528 4.528 0 010-6.363c1.766-1.758 4.604-1.764 6.336 0a4.517 4.517 0 01.01 6.372 4.49 4.49 0 01-6.346-.009z"/><path d="M278.422 117.987c-1.732-1.746-1.75-4.608 0-6.369 1.76-1.752 4.6-1.755 6.345.003a4.541 4.541 0 01.009 6.381 4.506 4.506 0 01-6.354-.015zm-25.345-31.813a4.457 4.457 0 016.336-.003c1.747 1.752 1.76 4.61 0 6.36-1.748 1.767-4.583 1.749-6.336.009a4.512 4.512 0 010-6.366zm-10.563-6.366a3 3 0 01.006-4.242 2.971 2.971 0 014.221 0 2.996 2.996 0 010 4.245 2.979 2.979 0 01-4.227-.003zm-10.554-14.85a2.947 2.947 0 014.218 0 3.002 3.002 0 01-.009 4.239 2.946 2.946 0 01-4.209.006 3.001 3.001 0 010-4.245zm-10.564-6.368a2.983 2.983 0 010-4.23 2.954 2.954 0 014.209 0 2.985 2.985 0 01.01 4.233 2.972 2.972 0 01-4.22-.003z"/><ellipse cx="214.001" cy="46.931" rx="1.491" ry="1.497"/><path d="M204.497 39.501a1.5 1.5 0 010-2.118 1.495 1.495 0 012.118-.006c.57.59.578 1.538-.009 2.118-.578.6-1.514.597-2.109.006z"/><ellipse cx="197.102" cy="29.954" rx="1.491" ry="1.497"/><path d="M187.598 20.408c.592-.581 1.531-.593 2.115.003a1.501 1.501 0 01-.006 2.115 1.5 1.5 0 01-2.112 0 1.513 1.513 0 01.003-2.118zM320.65 49.23c-2.381-.648-3.808-3.114-3.168-5.523a4.506 4.506 0 015.49-3.187 4.523 4.523 0 013.168 5.529 4.48 4.48 0 01-5.49 3.181z"/><path d="M320.65 49.23c-2.39-.648-3.808-3.12-3.168-5.529.639-2.379 3.092-3.82 5.49-3.17 2.387.649 3.805 3.115 3.168 5.518a4.48 4.48 0 01-5.49 3.181z"/><path d="M320.65 49.23c-2.39-.648-3.805-3.114-3.168-5.529.639-2.391 3.092-3.82 5.484-3.175a4.513 4.513 0 013.171 5.514c-.639 2.403-3.115 3.829-5.487 3.19z"/><path d="M320.64 49.23a4.523 4.523 0 01-3.176-5.514c.654-2.397 3.11-3.835 5.502-3.184a4.506 4.506 0 013.171 5.52c-.639 2.388-3.115 3.817-5.496 3.178z"/><path d="M320.64 49.23a4.523 4.523 0 01-3.176-5.514c.654-2.397 3.11-3.835 5.502-3.184a4.506 4.506 0 013.171 5.52c-.639 2.388-3.115 3.817-5.496 3.178z"/><path d="M320.65 49.221c-2.39-.639-3.808-3.111-3.168-5.52a4.473 4.473 0 015.484-3.166c2.384.639 3.805 3.11 3.162 5.508-.639 2.4-3.106 3.826-5.478 3.178zm-17.33-4.648c-2.38-.645-3.798-3.12-3.167-5.517.648-2.394 3.107-3.83 5.49-3.176 2.393.639 3.805 3.099 3.174 5.514a4.495 4.495 0 01-5.496 3.179z"/><path d="M320.64 49.23a4.523 4.523 0 01-3.176-5.514c.654-2.397 3.11-3.835 5.502-3.184a4.506 4.506 0 013.171 5.52c-.639 2.388-3.115 3.817-5.496 3.178zm-37.79-14.827c.64-2.408 3.098-3.833 5.488-3.182 2.381.633 3.816 3.108 3.168 5.508a4.495 4.495 0 01-5.484 3.188 4.49 4.49 0 01-3.171-5.514zm-12.322-.21c-1.592-.428-2.537-2.078-2.109-3.683a2.997 2.997 0 013.667-2.118c1.585.43 2.553 2.069 2.118 3.674a3.001 3.001 0 01-3.676 2.127zm-16.531-7.562a2.961 2.961 0 013.649-2.124 3.004 3.004 0 012.109 3.677 2.965 2.965 0 01-3.649 2.115 2.982 2.982 0 01-2.109-3.668zm-12.322-.208a2.98 2.98 0 01-2.106-3.665 2.975 2.975 0 013.646-2.118 2.986 2.986 0 012.118 3.659 2.987 2.987 0 01-3.658 2.124zm-12.212-7.881c.826 0 1.49.667 1.49 1.497a1.492 1.492 0 11-2.984 0c0-.83.665-1.497 1.494-1.497zm-11.931-.164a1.505 1.505 0 01-1.053-1.834 1.499 1.499 0 011.83-1.064 1.509 1.509 0 011.05 1.84c-.204.8-1.016 1.268-1.827 1.058zm-11.538-3.108a1.487 1.487 0 01-1.05-1.834 1.476 1.476 0 011.811-1.061 1.48 1.48 0 011.056 1.838 1.473 1.473 0 01-1.817 1.057zm-12.6-4.948a1.491 1.491 0 011.835-1.052c.787.203 1.26 1.029 1.05 1.832a1.506 1.506 0 01-1.83 1.063 1.528 1.528 0 01-1.055-1.843z"/></g></g></g></svg>